<svg xmlns="http://www.w3.org/2000/svg" viewBox="0 0 775 419" width="200" height="auto">
	<path d="M 144.500 2.965 C 127.987 6.562, 113.475 12.700, 96.605 23.224 C 85.273 30.294, 77.151 36.805, 65.136 48.453 C 45.160 67.817, 30.916 87.272, 18.975 111.500 C 7.511 134.759, 2.355 153.062, 1.368 174 C 0.420 194.101, 4.404 206.394, 15.486 217.560 C 25.195 227.343, 34.952 230.969, 51.622 230.988 C 86.900 231.029, 124.062 206.689, 163.222 157.892 L 165.944 154.500 165.372 162.129 C 164.671 171.476, 166.784 177.208, 172.554 181.608 C 180.671 187.799, 194.963 184.124, 208 172.492 C 211.575 169.302, 214.860 166.087, 215.300 165.346 C 216.701 162.987, 217.999 163.895, 218.022 167.250 C 218.054 172.044, 221.301 178.366, 225.133 181.096 C 230.128 184.655, 239.487 184.489, 247.194 180.704 C 252.817 177.943, 265.033 167.022, 270.355 160 L 273.008 156.500 272.254 160 C 269.169 174.324, 274.747 183.015, 287 182.974 C 296.131 182.944, 304.586 177.975, 315.736 166.084 L 320.973 160.500 319.008 165 C 316.315 171.171, 316.426 176.221, 319.331 179.598 C 321.209 181.782, 322.739 182.397, 327.216 182.768 C 333.822 183.316, 333.937 183.220, 341.154 171.046 C 354.944 147.786, 382.484 117.084, 386.213 120.813 C 387.373 121.973, 386.891 123.460, 377.098 148.907 C 374.260 156.281, 371.487 164.328, 370.935 166.789 C 369.139 174.804, 372.916 181.176, 380.267 182.533 C 386.074 183.606, 389.460 181.702, 391.570 176.179 C 395.197 166.680, 414.154 140.682, 426.077 128.853 C 432.709 122.273, 436.460 120.006, 437.993 121.651 C 438.428 122.118, 437.006 126.775, 434.832 132 C 422.433 161.809, 421.611 173.162, 431.327 180.395 C 435.614 183.587, 445.808 183.281, 452.610 179.756 C 457.526 177.209, 467.510 168.933, 471.316 164.250 C 472.322 163.012, 473.469 162, 473.865 162 C 474.261 162, 475.154 164.126, 475.849 166.726 C 477.705 173.664, 483.841 179.194, 492.195 181.455 C 515.286 187.705, 544.538 166.933, 553.898 137.638 C 556.395 129.824, 557.157 128.456, 559.159 128.194 C 562.782 127.721, 568.024 125.947, 573.423 123.366 C 576.131 122.072, 578.503 121.170, 578.695 121.362 C 578.887 121.554, 576.744 127.288, 573.932 134.105 C 565.776 153.885, 559 171.776, 559 173.532 C 559 174.424, 560.315 176.469, 561.923 178.077 C 564.430 180.584, 565.613 181, 570.232 181 C 573.194 181, 576.299 180.438, 577.133 179.750 C 577.966 179.063, 579.927 175.350, 581.491 171.500 C 591.286 147.392, 607.715 124.330, 621.973 114.674 C 627.407 110.994, 634 113.708, 634 119.625 C 634 122.301, 638.937 124.357, 642.287 123.076 C 646.578 121.435, 648.389 118.249, 648.813 111.600 C 649.344 103.264, 647.553 99.758, 641.603 97.486 C 637.869 96.060, 636.555 95.983, 633.332 97 C 623.564 100.082, 613.378 108.988, 598.450 127.500 C 596.562 129.841, 596.653 129.559, 601.955 116.655 C 604.180 111.240, 606 105.535, 606 103.977 C 606 99.703, 601.954 97, 595.556 97 C 589.305 97, 587.847 98.065, 585.555 104.309 C 584.584 106.954, 582.824 110.021, 581.645 111.123 C 578.275 114.273, 565.896 119.889, 561.653 120.192 L 557.805 120.467 557.383 115.062 C 556.431 102.873, 550.220 97.728, 535.756 97.151 C 520.726 96.550, 507.425 102.191, 494.950 114.454 C 485.618 123.628, 477.758 136.900, 475.566 147.187 C 474.825 150.663, 460.062 166.268, 455.438 168.462 C 452.166 170.015, 451.683 170.022, 449.440 168.552 C 445.043 165.672, 446.279 159.685, 456.571 134 C 461.401 121.946, 462.391 118.449, 462.440 113.272 C 462.495 107.557, 462.235 106.778, 459.289 103.830 C 456.497 101.036, 455.426 100.627, 451.075 100.692 C 447.563 100.745, 444.646 101.581, 441.286 103.499 C 435.840 106.606, 414.374 128.149, 406.701 138.209 C 403.887 141.898, 401.438 144.771, 401.260 144.593 C 401.081 144.415, 403.266 138.471, 406.114 131.384 C 412.023 116.681, 413.035 110.902, 410.545 106.087 C 407.143 99.508, 398.950 98.576, 390 103.750 C 384.037 107.197, 362.428 128.383, 354.301 138.750 C 350.744 143.287, 347.639 147, 347.400 147 C 347.162 147, 348.044 144.862, 349.362 142.250 C 354.724 131.617, 363.303 110.313, 363.318 107.594 C 363.337 104.066, 360.284 101.331, 355.278 100.392 C 350.937 99.578, 344.977 100.948, 343.932 103 C 343.512 103.825, 339.655 112.600, 335.360 122.500 C 326.004 144.071, 326.056 143.979, 317.579 153.907 C 307.516 165.693, 300.314 170.869, 295.919 169.474 C 290.167 167.649, 293.736 153.423, 307.003 125.300 C 310.843 117.160, 313.988 109.332, 313.992 107.905 C 314.004 104.015, 310.598 101.500, 305.318 101.500 C 301.428 101.500, 300.399 101.988, 297.410 105.250 C 295.520 107.313, 293.817 109, 293.626 109 C 293.436 109, 291.629 107.443, 289.611 105.540 C 283.080 99.380, 270.375 99.274, 257.906 105.275 C 244.224 111.859, 228.282 129.244, 222.807 143.553 C 221.076 148.077, 218.639 151.310, 211.424 158.655 C 199.487 170.807, 192.856 173.762, 189.390 168.473 C 187.924 166.236, 187.876 165.070, 188.965 158.316 C 191.614 141.896, 201.272 117.628, 222.083 75.105 C 229.187 60.588, 235 47.729, 235 46.529 C 235 41.490, 226.370 37.733, 219.786 39.906 C 216.842 40.877, 215.463 42.774, 208.262 55.755 C 197.740 74.724, 185.306 100.657, 178.003 118.864 C 172.869 131.664, 171.347 134.357, 164.028 143.584 C 153.514 156.839, 127.993 181.651, 116.444 189.846 C 105.814 197.389, 90.017 205.304, 81.045 207.582 C 72.695 209.702, 58.062 209.179, 53 206.580 C 48.555 204.297, 41.313 197.402, 39.264 193.500 C 34.827 185.051, 33.627 166.629, 36.576 152.208 C 40.649 132.289, 52.986 104.794, 66.508 85.500 C 94.152 46.055, 132.741 17.439, 162.383 14.402 C 182.803 12.310, 187.624 28.561, 172.951 50.033 C 162.719 65.006, 143.663 82.104, 130.611 88.022 C 126.975 89.671, 124 91.270, 124 91.576 C 124 93.503, 126.651 96.374, 129.548 97.585 C 140.351 102.098, 158.407 95.813, 171.675 82.921 C 187.344 67.695, 196.717 46.890, 195.798 29.377 C 194.834 11.004, 184.836 2.626, 162.500 1.470 C 155.857 1.126, 151.143 1.518, 144.500 2.965 M 527.500 107.887 C 512.481 114.809, 497.052 140.068, 497.012 157.800 C 496.992 166.615, 500.394 171.023, 507.184 170.978 C 517.622 170.909, 533.488 155.832, 541.953 137.938 C 545.276 130.913, 545.660 129.003, 543.750 128.994 C 540.577 128.980, 535.028 126.756, 532.636 124.538 C 530.491 122.551, 530.001 121.201, 530.006 117.298 C 530.010 114.659, 530.685 111.211, 531.506 109.636 C 533.810 105.217, 533.545 105.102, 527.500 107.887 M 541.217 108.250 C 540.157 109.541, 539.675 111.539, 539.882 113.798 C 540.014 115.246, 544.815 120, 546.146 120 C 546.616 120, 547 117.820, 547 115.155 C 547 111.731, 546.464 109.825, 545.171 108.655 C 542.978 106.670, 542.552 106.627, 541.217 108.250 M 272.500 112.874 C 261.273 118.012, 248.343 135.383, 243.113 152.355 C 240.505 160.816, 240.423 165.168, 242.829 167.345 C 245.398 169.670, 248.106 169.410, 252.610 166.407 C 262.998 159.481, 275.395 143.705, 283.148 127.547 C 286.863 119.804, 287.132 118.733, 286.028 116.069 C 285.280 114.261, 283.635 112.720, 281.756 112.065 C 277.754 110.670, 277.214 110.717, 272.500 112.874 M 250.814 201.017 C 229.290 204.406, 211.219 213.692, 195.464 229.458 C 169.410 255.533, 164.430 289.506, 185.115 300.059 C 189.721 302.408, 192.325 302.518, 194.054 300.434 C 195.129 299.139, 195.075 298.397, 193.738 296.133 C 188.078 286.552, 193.262 266.020, 205.989 247.610 C 214.546 235.232, 227.975 223.070, 239.517 217.244 C 254.844 209.509, 267.643 209.076, 271.943 216.147 C 273.641 218.939, 273.674 219.646, 272.367 225.336 C 265.499 255.235, 243.279 298.570, 219.457 328.523 C 195.266 358.939, 163.934 382.319, 140.323 387.572 C 129.918 389.886, 119.709 389.171, 112.924 385.650 C 107.477 382.824, 106 382.922, 106 386.109 C 106 391.493, 112.802 398.634, 121.954 402.857 C 129.392 406.289, 143.394 406.995, 154.689 404.508 C 182.074 398.478, 209.807 374.625, 236.667 334 C 251.897 310.965, 268.042 277.385, 276.991 250.129 L 281.710 235.757 282.431 241.129 C 283.414 248.456, 283.173 269.625, 281.986 280.111 C 280.123 296.577, 275.354 316.375, 270.402 328.203 C 267.660 334.753, 268.185 337.765, 272.573 340.640 C 275.840 342.781, 283.948 342.951, 286.927 340.942 C 288.103 340.149, 291.485 334.230, 294.442 327.788 C 312.547 288.355, 354.376 237.388, 378.696 225.130 C 381.109 223.913, 383.141 223.419, 383.479 223.965 C 384.113 224.991, 371.657 252.943, 354.498 289 C 334.505 331.012, 321 362.459, 321 366.999 C 321 370.419, 323.193 370.236, 331.076 366.156 C 335.210 364.017, 342.171 361.487, 346.546 360.533 C 350.921 359.580, 355.175 358.459, 356 358.043 C 358.309 356.877, 358.341 354.322, 356.053 353.724 C 352.711 352.850, 352.604 350.353, 355.560 342.214 C 359.385 331.684, 376.460 293.262, 390.884 262.726 C 405.796 231.159, 408.704 224.435, 410.146 218.187 C 411.161 213.792, 411.065 212.748, 409.349 209.440 C 405.665 202.342, 396.880 200.180, 386.500 203.817 C 377.517 206.965, 367.027 214.859, 352.446 229.443 C 336.922 244.971, 330.348 252.911, 313.717 276.221 C 307.548 284.868, 302.237 291.956, 301.916 291.971 C 301.594 291.987, 301.753 289.188, 302.269 285.750 C 302.785 282.313, 303.267 270.725, 303.340 260 C 303.449 243.932, 303.153 239.356, 301.659 234 C 297.255 218.219, 288.796 207.312, 277.757 203.182 C 271.127 200.701, 259.004 199.727, 250.814 201.017 M 605 220.702 C 600.137 222.465, 593.488 231.919, 591.157 240.384 C 587.976 251.934, 600.188 253.627, 610.687 243.092 C 617.460 236.296, 620.439 228.557, 618.021 224.039 C 616.410 221.028, 609.198 219.180, 605 220.702 M 454 233.815 C 435.397 243.055, 434.486 243.642, 434.199 246.585 C 433.510 253.647, 439.167 253.245, 459 244.823 C 472.384 239.139, 478.110 235.472, 479.420 231.748 C 480.719 228.053, 478.784 223.979, 475.771 224.065 C 474.522 224.102, 464.725 228.489, 454 233.815 M 525.251 260.545 C 510.578 264.496, 501 273.741, 501 283.951 C 501 290.195, 503.230 293.513, 515.145 305 C 525.461 314.945, 526.035 315.711, 526.015 319.500 C 525.956 330.155, 513.407 337.122, 502.490 332.560 C 494.447 329.200, 492.711 318.676, 498.924 310.945 C 503.151 305.685, 502.721 303.590, 497.336 303.197 C 493.862 302.943, 492.598 303.414, 489.536 306.102 C 487.526 307.867, 485.055 310.928, 484.044 312.905 C 481.642 317.601, 470.033 328.703, 466.631 329.556 C 460.346 331.134, 459.313 324.367, 463.877 311.500 C 465.437 307.100, 470.176 295.733, 474.406 286.239 C 481.565 270.176, 482.008 268.788, 480.789 266.239 C 479.008 262.514, 472.552 260.259, 467.377 261.556 C 463.722 262.472, 463.366 262.983, 455.554 278.541 C 443.549 302.451, 427.529 322.317, 416.113 327.454 C 411.805 329.392, 411.759 329.392, 410.307 327.454 C 407.296 323.435, 410.731 312.486, 423.643 284.936 C 427.139 277.476, 430 270.368, 430 269.141 C 430 263.920, 421.941 259.922, 415.029 261.713 C 411.866 262.532, 411.239 263.536, 403.313 280.455 C 388.695 311.663, 385.597 323.778, 389.803 333.287 C 392.517 339.423, 396.713 341.994, 404 341.986 C 407.686 341.982, 411.188 341.194, 414.617 339.598 C 420.107 337.042, 431.791 326.646, 438.329 318.500 C 440.537 315.750, 441.995 314.400, 441.569 315.500 C 441.144 316.600, 440.556 320.298, 440.263 323.718 C 439.625 331.176, 440.920 334.845, 445.658 339.005 C 448.606 341.593, 449.846 341.997, 454.785 341.978 C 462.061 341.950, 466.921 339.741, 475.252 332.674 L 481.805 327.115 482.975 329.940 C 484.624 333.922, 488.676 337.518, 494.500 340.169 C 498.617 342.043, 501.265 342.450, 509.500 342.473 C 523.595 342.511, 531.413 339.762, 539.031 332.088 C 551.399 319.629, 549.615 307.460, 533.442 293.951 C 524.179 286.215, 522 283.617, 522 280.312 C 522 277.035, 527.438 271.380, 532.417 269.478 C 540.527 266.381, 544.263 268.815, 542.358 275.951 C 540.806 281.767, 542.509 282.804, 547.772 279.249 C 558.943 271.704, 559.279 262.818, 548.496 260.103 C 542.578 258.613, 531.654 258.821, 525.251 260.545 M 647 261.433 C 635.539 264.629, 623.130 273.497, 614.723 284.500 C 609.266 291.643, 604.308 301.760, 603.445 307.518 C 602.468 314.031, 589.750 327.248, 582.355 329.434 C 579.488 330.281, 577 327.676, 577 323.826 C 577 318.649, 582.759 303.219, 591.182 285.830 C 600.256 267.097, 600.558 264.967, 594.497 262.434 C 590.405 260.724, 584.970 260.581, 581.797 262.099 C 580.198 262.864, 577.140 268.107, 571.736 279.349 C 555.146 313.865, 552.416 328.719, 560.917 338.233 C 563.417 341.031, 564.464 341.435, 570.159 341.797 C 575.243 342.121, 577.535 341.759, 581.149 340.060 C 586.376 337.603, 598.389 328.011, 599.993 325.013 C 601.508 322.183, 602.733 322.509, 603.487 325.942 C 604.665 331.302, 609.721 336.982, 615.819 339.794 C 629.864 346.270, 649.961 340.761, 667 325.764 L 671.500 321.803 672.170 326.422 C 674.103 339.747, 684.900 345.397, 697.452 339.651 C 703.025 337.099, 715.172 326.052, 721.258 318 L 723.904 314.500 722.952 317.993 C 721.446 323.519, 721.835 329.756, 723.942 333.887 C 729.302 344.393, 741.971 344.363, 753.512 333.815 C 757.108 330.528, 759 328.009, 759 326.507 C 759 322.983, 756.511 322.813, 752.429 326.057 C 747.873 329.677, 744.361 329.886, 742.875 326.626 C 741.225 323.003, 744.748 310.677, 754.009 287.676 C 760.337 271.960, 761.780 267.458, 760.973 265.949 C 759.553 263.296, 756.760 262, 752.466 262 C 749.603 262, 748.026 262.774, 745.267 265.533 C 741.798 269.002, 741.709 269.029, 740.306 267.027 C 737.057 262.388, 728.677 260.313, 720.185 262.045 C 703.037 265.542, 682.786 284.601, 676.218 303.423 C 674.244 309.080, 666.908 316.884, 657.553 323.277 C 649.881 328.521, 643.248 331, 636.889 331 C 632.480 331, 631.365 330.565, 628.546 327.746 C 620.570 319.770, 624.515 300.485, 637.716 282.925 C 649.481 267.274, 665.514 263.080, 661.869 276.607 C 661.292 278.748, 659.447 282.664, 657.768 285.308 C 653.824 291.523, 654.920 293.066, 661.493 290.556 C 670.694 287.042, 676.899 278.605, 675.554 271.437 C 673.844 262.322, 660.535 257.660, 647 261.433 M 60.852 265.911 C 46.283 271.609, 35.126 286.481, 34.282 301.327 C 33.832 309.239, 35.471 313.297, 40.430 316.546 C 49.622 322.569, 66.760 318.926, 78.804 308.390 C 81.564 305.976, 84.044 304, 84.313 304 C 84.583 304, 84.172 306.102, 83.399 308.670 C 82.168 312.760, 82.182 313.628, 83.509 315.654 C 84.343 316.927, 86.145 318.249, 87.513 318.593 C 92.698 319.894, 94.353 318.511, 99.298 308.746 C 107.077 293.383, 123.078 275.233, 127.942 276.255 C 130.154 276.719, 129.567 279.853, 125.287 290.423 C 122.719 296.767, 121.487 301.522, 121.195 306.216 C 120.798 312.612, 120.923 313.076, 123.812 315.966 C 131.202 323.356, 144.053 316.900, 155.409 300.093 C 158.929 294.883, 159.513 292.500, 157.270 292.500 C 156.685 292.500, 154.175 295.259, 151.693 298.630 C 146.248 306.027, 140.977 310.276, 137.805 309.827 C 134.134 309.306, 134.891 303.307, 140.319 289.894 C 146.697 274.136, 146.629 267.461, 140.067 265.173 C 136.185 263.820, 131.505 265.127, 126.028 269.095 C 121.085 272.676, 113.007 280.576, 107.719 287 L 104.016 291.500 105.887 287 C 106.917 284.525, 108.938 279.857, 110.380 276.626 C 113.483 269.668, 113.613 267.865, 111.171 265.655 C 108.473 263.213, 100 263.616, 100 266.186 C 100 266.721, 97.415 273.032, 94.255 280.212 C 88.910 292.357, 88.034 293.707, 81.674 299.596 C 69.134 311.205, 55.855 315.445, 51.073 309.365 C 49.010 306.743, 48.278 300.612, 49.765 298.414 C 50.169 297.817, 53.592 296.561, 57.372 295.622 C 77.893 290.528, 90.011 275.857, 81.077 266.923 C 78.448 264.294, 77.517 264.005, 71.827 264.047 C 68.190 264.074, 63.524 264.867, 60.852 265.911 M 67.206 270.670 C 65.395 271.562, 62.137 274.309, 59.967 276.775 C 55.800 281.509, 50.308 291.642, 51.347 292.680 C 51.684 293.018, 54.837 291.878, 58.353 290.147 C 68.447 285.178, 76.071 275.507, 73.326 271.155 C 71.925 268.934, 70.898 268.852, 67.206 270.670 M 720.932 273.828 C 709.549 281.047, 694.857 304.567, 693.961 317.002 C 693.526 323.049, 693.941 324.898, 695.977 325.988 C 703.818 330.184, 725.293 305.498, 735.409 280.660 C 736.958 276.857, 736.945 276.791, 734.064 273.910 C 730.337 270.183, 726.715 270.161, 720.932 273.828 M 770.289 304.217 C 769.732 304.923, 768.289 308.875, 767.081 313 C 765.873 317.125, 763.768 323.481, 762.403 327.124 C 754.095 349.299, 734.438 368.958, 708.346 381.185 C 668.693 399.767, 615.704 403.776, 540 393.922 C 522.239 391.610, 488.446 386.632, 456.500 381.620 C 406.736 373.814, 384.312 372.057, 348.332 373.147 C 309.551 374.322, 281.065 380.342, 254.239 393.033 C 244.192 397.787, 232 405.496, 232 407.096 C 232 407.540, 236.231 406.142, 241.403 403.990 C 260.073 396.220, 285.836 389.949, 309.500 387.415 C 330.831 385.132, 376.028 385.717, 399 388.576 C 422.263 391.470, 443.908 395.037, 480.500 402.005 C 512.727 408.142, 537.964 412.223, 562 415.183 C 577.319 417.069, 585.487 417.464, 609.500 417.480 C 646.149 417.505, 664.291 415.119, 689.028 407.020 C 729.950 393.622, 760.096 364.925, 770.527 329.438 C 774.547 315.762, 774.389 299.015, 770.289 304.217" stroke="none" fill="#3D2E1F" fill-rule="evenodd"/>
</svg>