<svg xmlns="http://www.w3.org/2000/svg" viewBox="0 0 1027 182" fill="none" preserveAspectRatio="xMidYMid meet" role="img" aria-label="CrieSuaMusica">
  <defs>
    <linearGradient id="logoGradient" x1="0%" y1="0%" x2="100%" y2="0%">
      <stop offset="0%" stop-color="#E85BA8" />
      <stop offset="12%" stop-color="#EC6BB5" />
      <stop offset="12%" stop-color="#000000" />
      <stop offset="55%" stop-color="#000000" />
      <stop offset="55%" stop-color="#6B2D8A" />
      <stop offset="100%" stop-color="#7B3D9A" />
    </linearGradient>
  </defs>
  <g transform="translate(0,182) scale(0.1,-0.1)" fill="url(#logoGradient)" stroke="none">
<path d="M1655 1793 c-11 -3 -175 -54 -365 -113 -190 -59 -437 -136 -550 -170
-180 -55 -209 -66 -237 -96 l-33 -34 0 -387 0 -388 -102 0 c-92 0 -110 -3
-165 -29 -76 -35 -152 -112 -178 -178 -26 -68 -17 -170 19 -233 80 -135 293
-186 457 -108 80 38 134 90 168 162 l26 56 5 379 5 379 195 59 c107 32 302 92
433 134 132 41 240 74 242 72 6 -6 9 -517 3 -523 -3 -4 -26 -1 -49 6 -70 18
-182 5 -255 -31 -128 -63 -188 -152 -189 -280 0 -91 26 -146 93 -197 64 -49
136 -66 251 -61 78 3 106 9 152 31 84 40 143 98 181 175 l33 67 0 632 c0 629
0 633 -21 653 -21 22 -82 33 -119 23z"/>
<path d="M2280 1116 c-143 -40 -230 -141 -230 -270 0 -72 27 -134 76 -174 19
-16 84 -55 145 -87 61 -32 119 -70 130 -83 29 -37 24 -76 -11 -106 -38 -31
-84 -40 -165 -32 -70 7 -117 24 -176 63 -22 14 -41 24 -44 22 -7 -8 -29 -178
-24 -184 3 -3 39 -17 80 -32 67 -24 88 -27 219 -27 139 -1 147 0 207 28 74 34
137 97 152 152 26 93 4 190 -55 246 -16 15 -76 52 -134 83 -110 59 -170 110
-170 145 0 37 30 81 65 96 73 30 197 9 274 -47 24 -17 44 -29 45 -27 5 5 26
145 26 167 0 24 -41 48 -115 67 -62 17 -235 17 -295 0z"/>
<path d="M4276 1083 c-3 -16 -15 -91 -26 -168 -12 -77 -41 -264 -65 -415 -25
-151 -45 -278 -45 -282 0 -5 45 -8 100 -8 55 0 100 2 100 4 0 2 18 120 40 262
22 143 40 265 40 271 0 7 4 13 9 13 5 0 12 -20 15 -45 12 -78 103 -397 116
-405 21 -13 127 -11 138 3 5 6 65 121 133 254 68 133 124 241 125 240 1 -2
-43 -287 -84 -539 l-9 -58 104 0 c60 0 103 4 103 10 0 5 13 94 30 197 86 550
101 640 106 666 l6 27 -131 0 -130 0 -79 -152 c-44 -84 -109 -210 -145 -280
l-65 -128 -26 108 c-15 59 -48 185 -73 280 l-46 172 -118 0 -117 0 -6 -27z"/>
<path d="M5549 1088 c-6 -12 -34 -53 -61 -91 -72 -101 -73 -97 19 -97 l78 0
98 98 c53 53 97 101 97 105 0 4 -49 7 -110 7 -102 0 -110 -1 -121 -22z"/>
<path d="M6472 1097 c-97 -56 -70 -197 38 -197 56 0 99 24 116 65 33 79 1 135
-82 142 -30 2 -58 -2 -72 -10z"/>
<path d="M7985 1088 c-4 -21 -31 -184 -105 -661 -17 -103 -30 -194 -30 -202 0
-12 19 -15 105 -15 l105 0 1 33 c0 17 13 102 27 187 l27 155 120 5 120 5 11
68 11 67 -119 0 c-88 0 -118 3 -117 13 0 6 8 57 17 112 l18 100 187 3 c186 2
187 3 188 25 0 12 4 46 8 75 l7 52 -288 0 -288 0 -5 -22z"/>
<path d="M8731 1009 c-39 -55 -71 -102 -71 -105 0 -2 39 -4 88 -4 l87 0 99 99
c77 77 94 100 81 105 -9 3 -61 6 -115 6 l-98 0 -71 -101z"/>
<path d="M9748 1094 c-35 -18 -58 -62 -58 -109 0 -51 38 -85 97 -85 58 0 97
21 117 64 24 51 20 83 -13 117 -24 23 -38 29 -73 29 -24 -1 -55 -7 -70 -16z"/>
<path d="M10035 1098 c-5 -17 -104 -632 -117 -728 -11 -85 -3 -120 35 -144 34
-23 105 -30 170 -16 54 11 57 13 62 48 4 20 8 48 11 63 4 24 3 25 -31 21 -26
-3 -36 0 -41 12 -4 9 19 169 51 354 31 185 59 352 62 370 l6 32 -102 0 c-72 0
-103 -4 -106 -12z"/>
<path d="M3620 821 c-84 -27 -166 -108 -201 -199 -30 -80 -37 -222 -15 -290
31 -91 114 -140 222 -129 54 6 121 34 143 61 18 22 26 20 39 -10 18 -38 74
-58 149 -50 86 9 91 12 98 59 4 23 9 50 11 59 4 13 -3 17 -28 20 l-33 3 2 69
c2 56 38 292 58 384 5 22 4 22 -95 22 -93 0 -100 -1 -100 -20 0 -25 -5 -25
-43 3 -25 17 -47 22 -107 24 -41 1 -86 -1 -100 -6z m190 -146 c21 -22 22 -31
17 -87 -12 -122 -27 -170 -67 -210 -31 -31 -45 -38 -78 -38 -24 0 -49 7 -63
19 -22 18 -24 26 -24 113 0 105 19 154 75 202 43 36 107 36 140 1z"/>
<path d="M5965 806 c-81 -38 -115 -87 -115 -167 0 -69 37 -118 120 -159 108
-54 138 -101 85 -136 -34 -22 -124 -12 -184 21 -24 14 -46 24 -48 22 -2 -2 -6
-34 -10 -71 l-6 -66 49 -22 c74 -33 210 -37 286 -9 74 28 124 83 133 144 15
98 -23 154 -146 218 -60 31 -81 48 -86 67 -18 72 134 83 209 15 10 -9 20 -14
23 -11 5 5 25 103 25 125 0 53 -240 74 -335 29z"/>
<path d="M6863 815 c-146 -45 -234 -159 -249 -322 -11 -124 29 -214 119 -260
46 -23 64 -27 147 -27 96 -1 157 13 185 41 10 9 15 35 15 74 0 32 -2 59 -4 59
-2 0 -23 -9 -47 -20 -60 -27 -138 -26 -172 1 -75 58 -42 258 51 312 42 24 127
25 172 2 17 -9 34 -15 36 -12 8 7 25 119 21 131 -13 34 -190 48 -274 21z"/>
<path d="M7333 814 c-53 -19 -124 -82 -157 -138 -54 -93 -74 -281 -37 -361 57
-127 245 -154 360 -51 16 14 25 17 28 9 21 -58 74 -78 174 -67 67 7 73 14 83
87 l7 47 -31 0 c-18 0 -33 6 -36 15 -4 8 10 111 30 228 20 116 36 218 36 225
0 9 -26 12 -95 12 -88 0 -95 -1 -95 -20 0 -25 -5 -25 -43 3 -41 28 -160 34
-224 11z m203 -137 l27 -24 -13 -94 c-15 -111 -41 -174 -84 -200 -48 -29 -89
-25 -121 13 -26 31 -27 37 -22 108 9 134 67 220 147 220 26 0 48 -8 66 -23z"/>
<path d="M8586 810 c-53 -21 -114 -74 -147 -127 -50 -80 -74 -254 -48 -346 25
-93 116 -146 225 -133 54 6 146 45 159 67 5 6 14 -1 26 -20 12 -21 31 -33 59
-41 47 -13 146 -4 158 14 4 6 12 35 18 63 l10 53 -33 0 c-30 0 -33 3 -33 29 0
16 16 121 35 233 19 112 35 206 35 211 0 4 -42 7 -93 7 -92 0 -93 0 -103 -27
l-9 -26 -34 29 c-30 25 -44 29 -105 31 -52 2 -84 -2 -120 -17z m211 -134 l27
-24 -12 -83 c-18 -123 -30 -159 -67 -196 -26 -26 -41 -33 -73 -33 -24 0 -49 7
-63 19 -22 18 -24 27 -23 108 0 75 4 96 27 140 14 28 38 60 53 72 37 29 95 28
131 -3z"/>
<path d="M9325 817 c-89 -30 -168 -94 -206 -169 -72 -141 -62 -296 24 -375 24
-22 61 -46 83 -54 58 -20 199 -18 256 4 51 20 54 24 64 110 l7 59 -52 -26
c-65 -34 -141 -37 -179 -9 -44 32 -54 61 -48 136 11 156 112 232 246 187 30
-10 56 -18 56 -17 1 1 6 30 12 65 9 61 8 64 -16 80 -33 21 -191 27 -247 9z"/>
<path d="M2770 813 c0 -5 -14 -89 -30 -188 -51 -305 -39 -383 60 -413 87 -26
208 -3 267 50 l21 20 14 -29 c19 -40 74 -56 161 -48 76 8 82 13 89 87 5 46 5
47 -26 50 -27 3 -31 7 -34 34 -2 17 11 118 27 224 17 106 31 199 31 207 0 10
-23 13 -98 13 l-99 0 -27 -172 c-15 -95 -32 -190 -37 -210 -21 -80 -128 -120
-166 -61 -17 25 -16 34 18 235 l36 208 -104 0 c-56 0 -103 -3 -103 -7z"/>
<path d="M5211 592 c-37 -251 -37 -308 0 -348 51 -54 172 -57 264 -5 54 31 54
31 65 10 19 -34 75 -52 139 -44 75 9 89 19 96 63 4 20 9 45 12 55 3 13 -2 17
-27 17 -17 0 -33 6 -36 14 -4 11 54 366 73 444 5 22 4 22 -101 22 -58 0 -106
-2 -106 -4 0 -14 -61 -383 -66 -400 -12 -40 -45 -66 -85 -66 -46 0 -64 25 -56
79 8 54 56 332 63 364 l6 27 -104 0 -103 0 -34 -228z"/>
<path d="M6390 808 c0 -7 -16 -112 -35 -233 -42 -267 -44 -307 -12 -339 13
-13 42 -27 65 -31 43 -7 148 10 157 26 4 5 10 32 14 59 l8 50 -33 0 c-27 0
-34 4 -34 19 0 22 68 429 75 449 3 9 -21 12 -100 12 -77 0 -105 -3 -105 -12z"/>
<path d="M9637 593 c-45 -274 -47 -324 -13 -358 30 -30 97 -40 169 -25 54 11
57 13 62 48 3 20 8 47 11 59 3 18 -1 22 -28 25 -32 3 -33 4 -31 48 1 25 17
132 36 238 l34 192 -102 0 -101 0 -37 -227z"/>
  </g>
</svg>
